<svg width="233" height="42" viewBox="0 0 233 42" fill="none" xmlns="http://www.w3.org/2000/svg">
<path d="M9.20775 42L0.78375 3.264L9.20775 0.599997L15.6878 32.064L24.1118 22.2V34.44L17.4158 42H9.20775ZM42.2558 42H34.0478L27.3518 34.44V22.2L35.4878 32.064L42.2558 0.599997L50.3918 3.264L42.2558 42ZM57.5569 5.568L65.7649 0.599997H80.5969V8.736H66.6289V17.232H80.5969V25.44H66.6289V42H57.5569V5.568ZM107.165 5.568L98.6689 0.599997H83.8369V8.736H98.0929V17.232H83.8369V25.44H98.0929V42H107.165V5.568ZM120.098 0.599997H143.138V8.736H129.17V33.576H143.138V42H120.098V0.599997ZM169.706 5.568L161.57 0.599997H146.666V8.736H160.634V33.576H146.666V42H161.57L169.706 37.104V5.568ZM182.677 0.599997H205.717V9.096H191.749V17.232H205.717V25.44H191.749V33.864H205.429V42H182.677V0.599997ZM209.245 33.864V42H232.285V33.864H209.245ZM232.285 9.096V0.599997H208.957V9.096H232.285ZM220.621 25.44V17.232H208.957V25.44H220.621Z" fill="#4641FF"/>
</svg>
